<svg preserveAspectRatio="none" width="100%" height="100%" overflow="visible" style="display: block;" viewBox="0 0 133.875 118.632" fill="none" xmlns="http://www.w3.org/2000/svg">
<path id="Vector" d="M77.652 118.632V97.7747C77.652 96.4742 75.5916 89.53 74.9048 87.9269C69.9859 76.4596 59.879 77.1549 53.9484 87.518C52.0923 90.7651 48.881 100.106 48.881 103.5V118.632H2.01231C1.85453 118.632 0.378861 117.372 0.17468 116.98C-0.651323 95.5173 1.70603 73.8668 1.9659 52.3309C8.89876 44.4216 16.8804 37.1094 24.732 29.8626C33.0292 22.1904 47.3497 8.00765 56.2872 2.06135C58.5703 0.540011 60.4822 -0.956788 63.3315 0.777209C82.9699 13.9948 103.871 26.8035 122.637 40.9454C128.688 45.5012 132.771 46.7363 133.375 54.3839C134.609 70.0062 133.282 87.0681 132.372 102.641C132.205 105.43 133.3 116.235 131.491 117.405C131.314 117.519 127.528 118.624 127.305 118.624H77.652V118.632Z" fill="var(--fill-0, #2949F5)"/>
</svg>
