<svg preserveAspectRatio="none" width="100%" height="100%" overflow="visible" style="display: block;" viewBox="0 0 144.545 116.253" fill="none" xmlns="http://www.w3.org/2000/svg">
<g id="Lamp">
<path id="Vector" d="M25.64 71.8497C18.0213 71.9484 10.2074 72.2156 2.60815 71.4742C0.0270563 71.2227 -0.045571 67.7075 0.0108751 63.6674C0.224241 48.3575 12.8564 36.6112 21.7167 26.361C31.9999 14.4649 47.8877 0.166838 52.6412 0.167025C54.6633 0.167105 83.8888 -0.208834 92.7736 0.167044C98.5068 1.70325 112.927 16.8056 129.779 40.3382C134.006 46.2415 144.581 58.4638 144.545 66.0691C144.529 70.4267 143.368 71.8175 141.218 72.0346C133.882 72.7758 126.498 72.6892 119.153 72.612L85.6176 72.4656C65.6246 72.4234 45.6324 71.7647 25.64 71.8497Z" fill="var(--fill-0, #2949F5)"/>
<path id="Vector_2" d="M55.5053 71.5334C59.1718 71.6106 76.7375 71.646 80.4049 71.64C81.6511 71.646 84.6424 71.5918 85.6933 71.7339C85.7537 72.3439 85.8021 72.9553 85.8383 73.5673C85.8159 81.0749 85.5025 93.3592 89.5846 99.8886C92.0601 103.693 96.4481 105.044 100.695 105.721C102.104 105.946 107.082 105.982 107.776 107.036C108.158 108.028 108.181 114.667 107.742 115.7C106.802 116.365 99.959 116.119 98.3051 116.122L81.6582 116.131C71.0044 116.134 45.5423 116.411 34.9728 116.119C34.8511 114.925 34.8635 110.283 34.8285 109.095C34.7741 107.247 35.9357 107.332 37.4694 107.043C41.8447 106.218 46.4296 105.688 49.7391 102.364C54.0407 98.0441 54.5635 91.6678 54.995 85.9125C55.3069 81.1532 55.45 76.2986 55.5053 71.5334Z" fill="var(--fill-0, #2949F5)"/>
</g>
</svg>
