<svg preserveAspectRatio="none" width="100%" height="100%" overflow="visible" style="display: block;" viewBox="0 0 126.357 127.502" fill="none" xmlns="http://www.w3.org/2000/svg">
<path id="Union" d="M63.1797 0C69.5938 0.000199448 74.7937 5.20012 74.7939 11.6143V12.4755C74.7939 22.4975 81.8316 30.9306 88.9184 38.017C96.0044 45.1026 104.437 52.1387 114.458 52.1387H114.743C121.157 52.1388 126.357 57.3388 126.357 63.7529C126.357 70.1672 121.157 75.3671 114.743 75.3672H114.472C104.446 75.3672 96.0104 82.4091 88.9212 89.4987C81.8337 96.5866 74.7949 105.021 74.7949 115.045V115.888C74.7949 122.302 69.595 127.502 63.1807 127.502C56.7663 127.502 51.5664 122.302 51.5664 115.888V115.049C51.5664 105.024 44.5259 96.5892 37.437 89.5008C30.3486 82.4128 21.9137 75.373 11.8895 75.373H11.6143C5.19994 75.3729 4.36089e-08 70.1731 0 63.7588C0.000265388 57.3447 5.20011 52.1447 11.6143 52.1445H11.8913C21.9151 52.1445 30.3496 45.1052 37.4372 38.0171C44.5253 30.9285 51.5654 22.4935 51.5654 12.4691V11.6143C51.5656 5.2 56.7654 0 63.1797 0ZM63.1777 44.8428C52.7312 44.8429 44.2619 53.3123 44.2617 63.7588C44.2617 74.2055 52.7311 82.6747 63.1777 82.6748C73.6245 82.6748 82.0938 74.2056 82.0938 63.7588C82.0935 53.3122 73.6244 44.8428 63.1777 44.8428ZM11.1631 56.4863C11.3123 56.4772 11.4627 56.4727 11.6143 56.4727H27.5034C27.5037 56.4727 27.5039 56.4724 27.5039 56.4722C27.5039 56.4719 27.5037 56.4717 27.5034 56.4717H11.6143C11.4627 56.4717 11.3123 56.4772 11.1631 56.4863ZM70.4609 11.3379C70.4644 11.4296 70.4658 11.5217 70.4658 11.6143V28.0845C70.4658 28.0847 70.466 28.085 70.4663 28.085C70.4666 28.085 70.4668 28.0847 70.4668 28.0845V11.6143C70.4668 11.4293 70.4592 11.2459 70.4453 11.0645L70.4609 11.3379Z" fill="var(--fill-0, #2949F5)"/>
</svg>
