<svg preserveAspectRatio="none" width="100%" height="100%" overflow="visible" style="display: block;" viewBox="0 0 65.0488 60" fill="none" xmlns="http://www.w3.org/2000/svg">
<path id="Vector" d="M25.3178 60H23.3587C19.5807 57.5955 21.7113 50.2879 20.6148 44.6391C17.8554 44.613 16.1301 44.7121 13.4383 45.0094C8.03895 45.604 1.2833 42.4327 0.441446 36.5544C-0.249708 31.714 0.0101244 26.7015 0.285547 21.882C0.602542 16.3844 2.01083 11.2154 4.42728 6.42715C7.96619 -0.593496 16.655 0.564441 23.1872 0.726135L34.1261 0.997363C39.3955 1.12776 44.3323 0.689623 49.5498 0.0950068C58.3581 -0.906452 65.4567 6.14027 65.0306 15.0491C64.6928 22.0645 63.9809 28.8296 63.1442 35.7929C62.5466 40.7584 59.0804 45.0303 54.2735 46.0265C43.6256 48.2381 40.9233 44.9677 38.1639 48.0503L31.3459 55.676C29.6518 57.5746 27.3965 58.8473 25.3178 59.9948V60Z" fill="var(--fill-0, #2949F5)"/>
</svg>
