<svg preserveAspectRatio="none" width="100%" height="100%" overflow="visible" style="display: block;" viewBox="0 0 1728 1001.58" fill="none" xmlns="http://www.w3.org/2000/svg">
<g id="Group 461504">
<path id="Vector" d="M0.0282343 31.1829C213.564 195.817 486.788 246.808 752.077 211.487C861.767 196.862 911.149 168.882 986.874 90.5314C1001.41 75.5108 1031.46 23.6444 1055.91 44.0013C1071.12 56.6785 1062.43 84.7716 1055.65 100.018C1051.64 109.053 1018.72 151.941 1022.14 155.414C1077.14 147.819 1122.65 107.133 1159.1 67.944C1175.22 50.5799 1203.37 6.5626 1225.2 1.36749C1268.31 -8.88156 1256.91 41.0649 1246.54 65.0358C1230.82 101.402 1197.78 129.946 1174.58 161.032C1220.15 140.619 1250.41 98.55 1291.72 73.2803C1313.85 66.8993 1320.52 94.0607 1318.29 111.425C1312.53 156.346 1238.95 207.732 1205.6 234.442C1243.52 224.814 1275.54 192.683 1309.14 175.686C1341.52 159.31 1343.28 188.561 1332.29 212.927C1310.92 260.389 1239.82 297.348 1192.45 313.215C1188.07 314.684 1184.37 310.731 1185.84 319.145C1208.09 320.867 1226.78 318.298 1247.93 312.086C1271.59 305.14 1308.18 279.701 1326.33 277.301C1334.18 276.257 1345.87 280.633 1346.78 289.555C1349.01 311.408 1307.73 339.191 1291.15 349.666C1175.14 422.877 1021.04 460.231 885.089 471.582C695.863 487.393 505.987 487.167 318.511 453.794C208.087 434.143 102.688 393.542 0 350.202V31.1829H0.0282343Z" fill="var(--fill-0, #0052D6)"/>
<path id="Vector_2" d="M1727.97 895.161C1601.74 950.218 1470.95 977.435 1334.1 991.157C1244.21 1000.16 1155.89 1004.29 1065.85 999.684C895.709 990.96 734.463 981.614 576.916 909.814C548.314 896.77 455.452 848.207 447.462 819.069C443.396 804.218 447.462 795.324 464.12 796.482C480.778 797.639 521.125 824.603 542.724 831.069C564.323 837.534 585.33 839.85 607.042 838.72C608.482 830.73 605.122 834.09 600.859 832.368C554.272 813.676 508.052 796.256 474.425 755.373C463.95 742.639 438.201 693.568 465.108 689.615C477.249 687.836 547.75 736.907 565.65 746.027C572.455 749.5 579.287 754.413 587.306 753.989C549.472 723.073 492.156 686.82 475.865 638.172C470.896 623.349 472.167 594.155 490.575 590.682C512.203 586.588 549.049 637.043 567.824 647.828L618.364 680.552C589.028 644.412 525.501 584.329 537.105 532.943C540.917 516.002 558.987 515.55 572.398 521.875C594.816 532.435 633.864 590.908 655.012 611.462C684.601 640.233 729.522 668.58 770.829 674.905C757.672 643.085 722.379 616.262 728.675 577.666C730.934 563.803 741.381 557.083 755.131 559.285C769.7 561.629 810.893 618.013 824.361 631.283C844.662 651.301 881.733 678.971 906.608 693.031C1010.48 751.843 1255.61 745.434 1373.26 728.155C1501.11 709.379 1617.41 660.449 1728 595.849V895.132L1727.97 895.161Z" fill="var(--fill-0, #0052D6)"/>
</g>
</svg>
