<svg preserveAspectRatio="none" width="100%" height="100%" overflow="visible" style="display: block;" viewBox="0 0 202.627 40" fill="none" xmlns="http://www.w3.org/2000/svg">
<g id="GLOME">
<path id="Vector" d="M172.856 0.559378H202.071V7.50211H180.354V15.9445H200.405V22.8872H180.354V32.4959H202.627V39.4387H172.856V0.559378Z" fill="var(--fill-0, #FDFFC3)"/>
<path id="Vector_2" d="M166.989 39.4387H159.491V4.55839L149.383 39.4387H137.997L127.833 4.55839V39.4387H120.334V0.559378H134.109L143.662 33.8845L153.271 0.559378H166.989V39.4387Z" fill="var(--fill-0, #FDFFC3)"/>
<path id="Vector_3" d="M95.5963 0.00388769C106.705 -0.21828 116.202 9.11275 115.98 19.999C116.202 30.9407 106.705 40.2162 95.5963 39.994C84.4324 40.2717 74.9348 30.8296 75.157 19.999C74.9348 9.1683 84.4324 -0.21828 95.5963 0.00388769ZM95.5963 32.8847C102.595 32.8847 108.371 27.7748 108.371 19.999C108.371 12.2786 102.761 7.0577 95.5963 7.0577C88.4314 7.0577 82.8217 12.2786 82.8217 19.999C82.8217 27.7748 88.5981 32.8847 95.5963 32.8847Z" fill="var(--fill-0, #FDFFC3)"/>
<path id="Vector_4" d="M44.75 0.559378H52.2482V32.4959H74.8536V39.4387H44.75V0.559378Z" fill="var(--fill-0, #FDFFC3)"/>
<path id="Vector_5" d="M19.3324 39.9941C8.50182 40.1608 -0.162669 31.6073 0.0039563 19.9991C-0.21821 8.83516 8.94616 -0.218164 19.9989 0.00400344C30.2741 0.00400344 36.7725 5.39156 38.8275 13.5562L31.4961 15.889C30.3297 10.1126 26.053 6.94674 20.11 6.94674C13.1673 6.94674 7.6687 12.3343 7.6687 19.9991C7.6687 27.7194 12.723 33.0514 19.9989 33.0514C26.2196 33.0514 29.4966 28.6081 30.1631 25.3866H14.4448V18.8882H39.6607V39.4387H33.1623V31.3852C30.774 36.7727 26.1641 39.9941 19.3324 39.9941Z" fill="var(--fill-0, #FDFFC3)"/>
</g>
</svg>
