<svg preserveAspectRatio="none" width="100%" height="100%" overflow="visible" style="display: block;" viewBox="0 0 151.97 30" fill="none" xmlns="http://www.w3.org/2000/svg">
<g id="GLOME">
<path id="Vector" d="M129.643 0.421875H151.554V5.62892H135.266V11.9607H150.304V17.1677H135.266V24.3743H151.97V29.5813H129.643V0.421875Z" fill="var(--fill-0, #FDFFC3)"/>
<path id="Vector_2" d="M125.242 29.5813H119.618V3.42114L112.037 29.5813H103.497L95.8743 3.42114V29.5813H90.2507V0.421875H100.581L107.746 25.4157L114.953 0.421875H125.242V29.5813Z" fill="var(--fill-0, #FDFFC3)"/>
<path id="Vector_3" d="M71.6976 0.00291577C80.0288 -0.16371 87.152 6.83457 86.9854 14.9992C87.152 23.2055 80.0288 30.1621 71.6976 29.9955C63.3247 30.2038 56.2015 23.1222 56.3681 14.9992C56.2015 6.87622 63.3247 -0.16371 71.6976 0.00291577ZM71.6976 24.6635C76.9462 24.6635 81.2785 20.8311 81.2785 14.9992C81.2785 9.20898 77.0712 5.29328 71.6976 5.29328C66.3239 5.29328 62.1166 9.20898 62.1166 14.9992C62.1166 20.8311 66.4489 24.6635 71.6976 24.6635Z" fill="var(--fill-0, #FDFFC3)"/>
<path id="Vector_4" d="M33.5627 0.421875H39.1863V24.3743H56.1404V29.5813H33.5627V0.421875Z" fill="var(--fill-0, #FDFFC3)"/>
<path id="Vector_5" d="M14.4993 29.9956C6.37637 30.1206 -0.122002 23.7055 0.00296723 14.9993C-0.163658 6.62637 6.70962 -0.163623 14.9992 0.00300258C22.7056 0.00300258 27.5794 4.04367 29.1207 10.1672L23.622 11.9167C22.7473 7.58447 19.5397 5.21005 15.0825 5.21005C9.87549 5.21005 5.75153 9.25072 5.75153 14.9993C5.75153 20.7895 9.54224 24.7886 14.9992 24.7886C19.6647 24.7886 22.1224 21.456 22.6223 19.04H10.8336V14.1662H29.7455V29.579H24.8717V23.5389C23.0805 27.5795 19.623 29.9956 14.4993 29.9956Z" fill="var(--fill-0, #FDFFC3)"/>
</g>
</svg>
