<svg preserveAspectRatio="none" width="100%" height="100%" overflow="visible" style="display: block;" viewBox="0 0 50 50" fill="none" xmlns="http://www.w3.org/2000/svg">
<g id="Container">
<path id="key_vertical" d="M22.0919 12.475C18.915 9.35825 15.2935 9.94718 12.7169 12.475C10.1403 15.0028 10.1403 19.1447 12.7169 21.6726C15.2935 24.2004 18.9669 24.7384 21.9111 21.85C24.4877 19.3222 24.6685 15.0028 22.0919 12.475ZM37.2698 49.9874C36.5322 50.0545 35.8616 49.8533 35.2581 49.3839C34.9564 49.1492 34.7217 48.8642 34.554 48.529C33.6654 46.7518 33.725 44.2264 33.583 42.1285C33.5465 41.5897 33.0914 41.1863 32.5514 41.1863H28.2675C27.4628 41.1863 26.8426 40.8678 26.3061 40.3313C26.1136 40.1388 25.4512 39.1746 25.4512 38.3699C25.4512 38.3699 25.2962 33.931 25.4512 33.1396C25.6061 32.3481 24.7471 32.4355 24.7471 32.4355C21.4948 34.0113 18.0917 34.4975 14.5378 33.8939C10.9838 33.2904 7.91596 31.6979 5.3343 29.1162C-1.30033 22.4816 -1.30033 11.6106 5.3343 4.97597C11.9689 -1.65866 22.8399 -1.65866 29.4745 4.97597C32.1903 7.69175 33.7913 10.835 34.2774 14.4057C34.7636 17.9765 32.8068 22.9675 32.7938 24.3887C32.7808 25.8099 48.7867 40.3816 48.7867 40.3816C49.3232 40.9181 49.6417 41.6389 49.6417 42.4436C49.6417 42.4436 49.2235 45.0959 49.3691 46.3042C49.5148 47.5125 49.4237 47.8919 48.8873 48.4284C48.3508 48.9648 40.3229 49.7818 37.2698 49.9874Z" fill="var(--fill-0, #FDFFC3)"/>
</g>
</svg>
