<svg preserveAspectRatio="none" width="100%" height="100%" overflow="visible" style="display: block;" viewBox="0 0 100 65" fill="none" xmlns="http://www.w3.org/2000/svg">
<g id="Frame 2147260848">
<g id="Group 2147253438">
<path id="Subtract" d="M21.3525 2.97832C28.9801 1.0384 37.2889 5.83716 39.2588 13.5184C39.5717 14.6132 39.7154 15.5081 39.875 16.6229C40.7851 20.7089 36.4189 28.2607 34.4209 31.7479C33.0869 34.0761 31.7004 36.2903 30.1308 38.4666C29.1544 39.8205 28.3874 41.3619 27.292 42.6209C26.6305 43.4152 24.22 44.2757 23.4873 43.2508C22.9704 42.797 22.7324 42.4435 22.3867 41.8602C21.0743 39.8298 19.6352 37.829 18.3027 35.7889C15.9463 32.2571 13.8827 28.5381 12.1328 24.6697C11.7368 23.7838 11.3317 22.8858 10.9609 21.9891C9.31156 17.9996 9.85841 13.5848 12.041 9.87188C14.0961 6.41942 17.4505 3.93587 21.3525 2.97832ZM32.4746 11.4891C29.9811 9.76393 27.3172 8.79841 24.292 9.32207C17.9467 10.4205 14.23 15.9951 18.1465 21.6941C18.369 21.9322 18.5917 22.1774 18.8271 22.4022C19.0828 22.6455 19.5242 23.042 19.8291 23.2049C20.1339 23.3677 20.5156 23.5903 22.0888 24.0301C26.7165 25.3237 33.0435 22.7388 34.2109 17.7772C34.5544 16.317 34.3793 14.8297 33.9756 13.4061C33.606 12.6694 33.0599 12.0589 32.4746 11.4891Z" fill="var(--fill-0, #2949F5)"/>
<path id="Vector" d="M34.8027 40.1956C35.2809 39.3946 35.873 38.7703 36.8126 38.5925C40.0987 37.9706 40.7974 39.9328 40.7121 42.5597C40.7628 47.0442 40.7711 51.5289 40.7372 56.0134C40.7191 58.1095 40.7801 60.1971 40.6263 62.2886C40.4639 64.4974 39.8553 64.7452 37.8107 64.7452L26.7017 64.7213C25.1423 64.713 23.1829 64.7593 21.6586 64.696C19.8339 64.93 17.3842 64.6225 15.5492 64.7294C11.1088 64.9881 11.5494 63.9833 11.6555 60.3127C11.6136 58.733 11.4728 52.9604 11.8594 51.79C12.0614 51.1783 12.6588 50.594 13.2253 50.3034C13.9292 49.8313 15.7524 49.0386 16.5442 49.3652C19.2265 50.4713 21.5045 52.8475 24.084 54.2138C24.4726 54.4196 25.395 54.3203 25.8937 54.4328C26.1738 54.327 26.3187 54.2365 26.4981 53.9903C27.3753 52.7865 28.1499 51.3756 28.9072 50.0911C30.2729 47.7668 31.6511 45.4499 33.0418 43.1404C33.6212 42.1774 34.1811 41.116 34.8027 40.1956Z" fill="var(--fill-0, #2949F5)"/>
<path id="Subtract_2" d="M46.5085 0.00588608C47.8948 0.171924 50.2873 1.58361 51.5485 2.19827L59.239 5.86721C65.3727 8.73303 72.2056 11.2741 77.8806 15.0616C79.2721 15.9903 78.9441 21.0472 78.9528 22.6953L78.9734 31.8731L79.1189 55.3311C79.2798 56.7586 79.1487 58.864 79.2019 60.3555C79.2354 61.2967 79.2405 62.6553 79.156 63.5908C79.1383 63.7902 78.7944 64.2577 78.6618 64.4473C78.2197 64.9022 78.0563 64.8514 77.4196 64.8916C76.764 64.9112 75.9433 64.8874 75.3015 64.8067C74.9673 64.5592 74.6695 64.3185 74.3484 64.0557C73.928 63.7195 73.4556 63.2535 73.1511 62.8096C73.0477 62.1954 73.0685 61.0856 73.0642 60.4317L73.0495 56.6338C73.0036 56.2741 73.0005 55.2545 73.0026 54.8799C73.0245 51.9851 73.1615 50.7803 71.405 48.3233C71.086 47.9959 70.7129 47.7849 70.3269 47.541C69.3419 46.9981 68.0005 47.0852 66.9382 47.3116C65.4852 47.8792 64.5641 48.2898 63.6257 49.5957C63.3565 50.0882 62.8835 50.7921 62.7624 51.2959C62.4985 52.3936 62.5479 53.7468 62.5505 54.876L62.5651 60.6123C62.5652 61.5098 62.5998 63.1104 62.4812 63.961C62.1582 64.3944 62.0014 64.5426 61.5739 64.8858C60.6738 64.9962 59.5267 64.9602 58.5954 64.9619L54.195 64.9746L48.7321 64.9873C47.8212 64.9889 46.5367 65.0274 45.6462 64.9619C45.1622 64.5814 44.7124 64.2934 44.6687 63.6465C44.6084 62.7536 44.6232 61.8145 44.6189 60.919L44.5925 56.0977L44.5515 39.1524L44.4773 15.7285C44.4437 12.7265 44.4278 9.72395 44.4304 6.72171C44.4275 5.19521 44.4304 3.61728 44.447 2.14553C44.4581 1.1577 45.6508 -0.0965021 46.5085 0.00588608ZM56.0114 34.0098C55.079 33.8234 54.2371 33.9227 53.2136 34.1963C52.1903 34.47 51.1501 34.9538 50.4167 35.6885C49.6834 36.4234 49.0813 37.4146 49.0007 38.8135C48.8533 41.3762 48.9803 44.1232 49.0007 46.6924C49.0098 47.8109 49.4839 48.557 49.9284 49.1846C50.4162 49.8622 51.3486 50.5631 52.0944 50.8907C54.0795 51.7622 56.3401 51.6391 57.989 50.2354C59.6669 48.8064 59.7504 47.3697 59.9401 45.3155C59.9294 44.5894 59.901 43.8611 59.8776 43.1348C59.8164 41.2268 59.5548 38.1139 59.3591 37.1475C59.2642 36.5548 58.9954 35.6892 58.5485 35.2783C57.6901 34.57 56.9439 34.1963 56.0114 34.0098ZM70.9734 23.8867C69.8123 23.0107 68.1342 22.6379 66.8288 22.8242C65.5234 23.0108 64.2983 23.744 63.5691 25.1133C63.2347 25.7344 63.0016 26.4057 62.8806 27.1006C62.7245 28.0543 62.7873 30.207 62.7937 31.2442C62.8088 33.7 62.5513 36.3777 64.3562 38.3408C65.4456 39.4722 66.0999 39.6992 67.5915 40.1543H67.5944C70.5101 40.1265 72.7363 38.0133 73.196 35.1866C73.2265 34.8013 73.2185 34.4178 73.2165 34.0313C73.2068 32.1168 73.236 30.2001 73.2028 28.2862C73.17 26.3807 72.3108 25.1361 70.9734 23.8867ZM54.0544 11.1924C52.0672 11.2687 50.811 12.4056 49.5534 13.7647C48.0755 16.3115 48.4511 21.1019 49.1208 23.7842C49.3146 24.5601 49.725 25.2889 50.2234 25.9092C51.1691 27.1047 52.5571 27.8689 54.073 28.0293C55.7673 28.209 56.8347 27.845 58.197 26.916V26.9151C58.8743 26.2575 59.2579 25.7339 59.6394 24.8809C59.9242 22.6676 59.6622 14.159 58.1218 12.7227C57.0287 11.684 55.5611 11.1314 54.0544 11.1924Z" fill="var(--fill-0, #2949F5)"/>
</g>
</g>
</svg>
