<svg preserveAspectRatio="none" width="100%" height="100%" overflow="visible" style="display: block;" viewBox="0 0 50.0001 50" fill="none" xmlns="http://www.w3.org/2000/svg">
<g id="Container">
<path id="Vector" d="M18.8675 4.11304L20.8957 7.74721C22.726 11.0268 21.9913 15.3292 19.1085 18.2119C19.1085 18.2119 15.6122 21.7088 21.9516 28.0485C28.2891 34.386 31.7882 30.8916 31.7882 30.8916C34.671 28.0088 38.9732 27.2741 42.2529 29.1044L45.887 31.1326C50.8395 33.8963 51.4242 40.8413 47.0714 45.1945C44.4557 47.8101 41.2513 49.8454 37.7091 49.9795C31.7463 50.2057 21.6197 48.6967 11.4616 38.5385C1.30354 28.3804 -0.205588 18.2539 0.0204753 12.2909C0.154757 8.74877 2.19001 5.54448 4.80567 2.92885C9.15865 -1.42413 16.1037 -0.839251 18.8675 4.11304Z" fill="var(--fill-0, #FDFFC3)"/>
</g>
</svg>
