<svg preserveAspectRatio="none" width="100%" height="100%" overflow="visible" style="display: block;" viewBox="0 0 39.0582 44.4192" fill="none" xmlns="http://www.w3.org/2000/svg">
<g id="Group 2147253462">
<path id="Pin" fill-rule="evenodd" clip-rule="evenodd" d="M19.5291 0.00012207C30.3147 0.00012207 39.0582 8.88585 39.0582 19.847C39.0582 29.4493 32.348 37.459 23.4331 39.2972L20.1358 44.0955C20.0674 44.1955 19.9765 44.2771 19.8709 44.3335C19.7653 44.3898 19.6481 44.4192 19.5291 44.4192C19.4101 44.4192 19.2928 44.3898 19.1872 44.3335C19.0816 44.2771 18.9908 44.1955 18.9224 44.0955L15.6251 39.2972C6.71017 37.459 0 29.4493 0 19.847C0 8.88585 8.74347 0.00012207 19.5291 0.00012207Z" fill="var(--fill-0, #FBDD5C)"/>
<g id="Frame 2147260850">
<rect x="3.44631" y="3.73362" width="32.1656" height="32.1656" rx="16.0828" fill="var(--fill-0, white)"/>
<g id="Vector">
<path d="M25.6212 8.64697C25.6199 9.61507 23.0558 15.5853 23.642 15.5928C25.3149 15.6143 26.2191 15.3614 27.4778 15.2744C29.2441 15.1523 29.3103 15.0361 27.8691 16.1765C27.0631 16.8161 26.1568 17.1219 25.6377 17.8445C25.3784 18.2056 26.7316 18.5796 27.3466 18.7994C28.7381 19.2967 32.2926 20.2183 31.4477 20.4392C29.0265 21.072 27.8402 21.2333 24.6695 21.2333C23.9984 21.2333 24.3468 22.0402 25.1821 22.6842C25.7094 23.0908 26.788 24.2159 26.2127 24.1962C24.6556 24.1431 23.7461 24.0757 22.6787 23.9902C22.5369 23.9788 22.4309 24.1192 22.4809 24.2523C22.8271 25.1736 23.8434 28.0588 23.4164 29.1203C23.1244 29.8462 22.2489 27.8495 21.7648 27.2041C21.2034 26.4555 20.4739 25.6411 20.1511 25.6411C19.9774 25.6411 19.689 25.8395 19.5705 25.9665C18.2191 27.4138 17.2415 28.9471 15.9313 30.432C14.7263 31.7976 14.6294 31.5016 14.9879 29.9479L15.6857 27.139C15.7359 26.8422 15.8628 26.3508 15.9313 26.0397C16.0052 25.7037 16.1518 24.9693 16.2706 24.6869C15.3065 25.1906 14.3478 25.7377 13.3742 26.2364C13.0215 26.4169 11.5099 27.2936 11.5991 26.8818C11.9837 25.1068 12.8888 23.0236 13.1315 22.6128C13.3742 22.2021 12.1811 22.2021 11.7589 22.2021C10.0829 22.1697 6.52221 22.4528 7.72589 21.3811C8.71541 20.5001 10.308 19.9429 11.7578 19.1905C12.4066 18.8538 9.49665 17.3301 9.12078 17.0322C7.56542 15.9086 8.00421 15.9834 9.70406 15.8286C10.9369 15.7163 13.6728 16.206 13.4482 15.4454C13.0077 13.9539 11.561 11.4407 13.6618 12.3046L15.5971 13.1047C15.965 13.2571 16.2706 13.4956 16.7679 13.6053C17.2025 13.7013 17.3172 12.7487 17.4091 12.3046C17.7318 10.7447 17.8879 10.2233 18.2437 9.22739C18.8248 7.60101 19.8716 12.4486 20.5448 14.0446C21.0565 15.2577 22.5966 12.2963 23.2153 11.134C24.024 9.61458 25.6226 7.52453 25.6212 8.64697Z" fill="var(--fill-0, #FBDD5C)"/>
<path d="M25.6212 8.64697C25.6199 9.61507 23.0558 15.5853 23.642 15.5928C25.3149 15.6143 26.2191 15.3614 27.4778 15.2744C29.2441 15.1523 29.3103 15.0361 27.8691 16.1765C27.0631 16.8161 26.1568 17.1219 25.6377 17.8445C25.3784 18.2056 26.7316 18.5796 27.3466 18.7994C28.7381 19.2967 32.2926 20.2183 31.4477 20.4392C29.0265 21.072 27.8402 21.2333 24.6695 21.2333C23.9984 21.2333 24.3468 22.0402 25.1821 22.6842C25.7094 23.0908 26.788 24.2159 26.2127 24.1962C24.6556 24.1431 23.7461 24.0757 22.6787 23.9902C22.5369 23.9788 22.4309 24.1192 22.4809 24.2523C22.8271 25.1736 23.8434 28.0588 23.4164 29.1203C23.1244 29.8462 22.2489 27.8495 21.7648 27.2041C21.2034 26.4555 20.4739 25.6411 20.1511 25.6411C19.9774 25.6411 19.689 25.8395 19.5705 25.9665C18.2191 27.4138 17.2415 28.9471 15.9313 30.432C14.7263 31.7976 14.6294 31.5016 14.9879 29.9479L15.6857 27.139C15.7359 26.8422 15.8628 26.3508 15.9313 26.0397C16.0052 25.7037 16.1518 24.9693 16.2706 24.6869C15.3065 25.1906 14.3478 25.7377 13.3742 26.2364C13.0215 26.4169 11.5099 27.2936 11.5991 26.8818C11.9837 25.1068 12.8888 23.0236 13.1315 22.6128C13.3742 22.2021 12.1811 22.2021 11.7589 22.2021C10.0829 22.1697 6.52221 22.4528 7.72589 21.3811C8.71541 20.5001 10.308 19.9429 11.7578 19.1905C12.4066 18.8538 9.49665 17.3301 9.12078 17.0322C7.56542 15.9086 8.00421 15.9834 9.70406 15.8286C10.9369 15.7163 13.6728 16.206 13.4482 15.4454C13.0077 13.9539 11.561 11.4407 13.6618 12.3046L15.5971 13.1047C15.965 13.2571 16.2706 13.4956 16.7679 13.6053C17.2025 13.7013 17.3172 12.7487 17.4091 12.3046C17.7318 10.7447 17.8879 10.2233 18.2437 9.22739C18.8248 7.60101 19.8716 12.4486 20.5448 14.0446C21.0565 15.2577 22.5966 12.2963 23.2153 11.134C24.024 9.61458 25.6226 7.52453 25.6212 8.64697Z" fill="var(--fill-1, #FBDD5C)"/>
</g>
</g>
</g>
</svg>
