<svg preserveAspectRatio="none" width="100%" height="100%" overflow="visible" style="display: block;" viewBox="0 0 39.0582 44.4191" fill="none" xmlns="http://www.w3.org/2000/svg">
<g id="Group 2147253462">
<path id="Pin" fill-rule="evenodd" clip-rule="evenodd" d="M19.5291 0C30.3147 0 39.0582 8.88573 39.0582 19.8468C39.0582 29.4492 32.348 37.4589 23.4331 39.297L20.1358 44.0954C20.0674 44.1954 19.9766 44.277 19.871 44.3333C19.7653 44.3897 19.6481 44.4191 19.5291 44.4191C19.4101 44.4191 19.2928 44.3897 19.1872 44.3333C19.0816 44.277 18.9908 44.1954 18.9224 44.0954L15.6251 39.297C6.71018 37.4589 1.27494e-05 29.4492 1.27494e-05 19.8468C1.27494e-05 8.88573 8.74348 0 19.5291 0Z" fill="var(--fill-0, #FBDD5C)"/>
<g id="Frame 2147260850">
<rect x="3.44649" y="3.7335" width="32.1656" height="32.1656" rx="16.0828" fill="var(--fill-0, white)"/>
<g id="Vector">
<path d="M25.6213 8.64685C25.6201 9.61494 23.056 15.5852 23.6422 15.5927C25.315 15.6141 26.2193 15.3613 27.4779 15.2743C29.2443 15.1522 29.3105 15.036 27.8693 16.1763C27.0633 16.816 26.1569 17.1218 25.6379 17.8444C25.3786 18.2054 26.7318 18.5795 27.3468 18.7993C28.7383 19.2966 32.2927 20.2182 31.4479 20.439C29.0267 21.0718 27.8404 21.2332 24.6697 21.2332C23.9986 21.2332 24.3469 22.0401 25.1823 22.6841C25.7096 23.0907 26.7882 24.2158 26.2129 24.1961C24.6558 24.1429 23.7463 24.0756 22.6788 23.99C22.5371 23.9787 22.431 24.119 22.4811 24.2521C22.8273 25.1735 23.8436 28.0587 23.4166 29.1202C23.1246 29.8461 22.2491 27.8494 21.765 27.2039C21.2036 26.4554 20.474 25.6409 20.1513 25.6409C19.9776 25.6409 19.6892 25.8394 19.5706 25.9664C18.2193 27.4136 17.2416 28.947 15.9314 30.4319C14.7265 31.7974 14.6296 31.5015 14.988 29.9478L15.6859 27.1388C15.7361 26.8421 15.863 26.3507 15.9314 26.0395C16.0054 25.7036 16.152 24.9691 16.2708 24.6868C15.3067 25.1904 14.3479 25.7376 13.3743 26.2362C13.0217 26.4168 11.5101 27.2935 11.5993 26.8817C11.9838 25.1066 12.8889 23.0234 13.1316 22.6127C13.3743 22.202 12.1813 22.202 11.7591 22.202C10.0831 22.1696 6.52239 22.4527 7.72607 21.381C8.71559 20.5 10.3082 19.9428 11.758 19.1903C12.4067 18.8536 9.49683 17.33 9.12096 17.0321C7.5656 15.9085 8.00439 15.9833 9.70424 15.8285C10.9371 15.7161 13.673 16.2059 13.4484 15.4453C13.0079 13.9537 11.5612 11.4406 13.6619 12.3045L15.5973 13.1046C15.9652 13.257 16.2708 13.4955 16.7681 13.6052C17.2027 13.7011 17.3174 12.7486 17.4092 12.3045C17.732 10.7446 17.8881 10.2232 18.2439 9.22727C18.8249 7.60089 19.8718 12.4485 20.545 14.0444C21.0567 15.2576 22.5968 12.2962 23.2155 11.1339C24.0242 9.61446 25.6228 7.52441 25.6213 8.64685Z" fill="var(--fill-0, #FBDD5C)"/>
<path d="M25.6213 8.64685C25.6201 9.61494 23.056 15.5852 23.6422 15.5927C25.315 15.6141 26.2193 15.3613 27.4779 15.2743C29.2443 15.1522 29.3105 15.036 27.8693 16.1763C27.0633 16.816 26.1569 17.1218 25.6379 17.8444C25.3786 18.2054 26.7318 18.5795 27.3468 18.7993C28.7383 19.2966 32.2927 20.2182 31.4479 20.439C29.0267 21.0718 27.8404 21.2332 24.6697 21.2332C23.9986 21.2332 24.3469 22.0401 25.1823 22.6841C25.7096 23.0907 26.7882 24.2158 26.2129 24.1961C24.6558 24.1429 23.7463 24.0756 22.6788 23.99C22.5371 23.9787 22.431 24.119 22.4811 24.2521C22.8273 25.1735 23.8436 28.0587 23.4166 29.1202C23.1246 29.8461 22.2491 27.8494 21.765 27.2039C21.2036 26.4554 20.474 25.6409 20.1513 25.6409C19.9776 25.6409 19.6892 25.8394 19.5706 25.9664C18.2193 27.4136 17.2416 28.947 15.9314 30.4319C14.7265 31.7974 14.6296 31.5015 14.988 29.9478L15.6859 27.1388C15.7361 26.8421 15.863 26.3507 15.9314 26.0395C16.0054 25.7036 16.152 24.9691 16.2708 24.6868C15.3067 25.1904 14.3479 25.7376 13.3743 26.2362C13.0217 26.4168 11.5101 27.2935 11.5993 26.8817C11.9838 25.1066 12.8889 23.0234 13.1316 22.6127C13.3743 22.202 12.1813 22.202 11.7591 22.202C10.0831 22.1696 6.52239 22.4527 7.72607 21.381C8.71559 20.5 10.3082 19.9428 11.758 19.1903C12.4067 18.8536 9.49683 17.33 9.12096 17.0321C7.5656 15.9085 8.00439 15.9833 9.70424 15.8285C10.9371 15.7161 13.673 16.2059 13.4484 15.4453C13.0079 13.9537 11.5612 11.4406 13.6619 12.3045L15.5973 13.1046C15.9652 13.257 16.2708 13.4955 16.7681 13.6052C17.2027 13.7011 17.3174 12.7486 17.4092 12.3045C17.732 10.7446 17.8881 10.2232 18.2439 9.22727C18.8249 7.60089 19.8718 12.4485 20.545 14.0444C21.0567 15.2576 22.5968 12.2962 23.2155 11.1339C24.0242 9.61446 25.6228 7.52441 25.6213 8.64685Z" fill="var(--fill-1, #FBDD5C)"/>
</g>
</g>
</g>
</svg>
