<svg preserveAspectRatio="none" width="100%" height="100%" overflow="visible" style="display: block;" viewBox="0 0 39.0582 44.4191" fill="none" xmlns="http://www.w3.org/2000/svg">
<g id="Group 2147253462">
<path id="Pin" fill-rule="evenodd" clip-rule="evenodd" d="M19.5291 0C30.3147 0 39.0582 8.88573 39.0582 19.8468C39.0582 29.4492 32.348 37.4589 23.4331 39.297L20.1358 44.0954C20.0674 44.1954 19.9765 44.277 19.8709 44.3333C19.7653 44.3897 19.6481 44.4191 19.5291 44.4191C19.4101 44.4191 19.2928 44.3897 19.1872 44.3333C19.0816 44.277 18.9908 44.1954 18.9224 44.0954L15.6251 39.297C6.71017 37.4589 0 29.4492 0 19.8468C0 8.88573 8.74347 0 19.5291 0Z" fill="var(--fill-0, #FD6418)"/>
<g id="Frame 2147260850">
<rect x="3.44631" y="3.7335" width="32.1656" height="32.1656" rx="16.0828" fill="var(--fill-0, white)"/>
<path id="Vector" d="M24.5064 9.8707C25.2569 9.76369 25.5965 10.5015 25.657 11.1227C25.7109 11.6764 25.6417 12.256 25.5947 12.8102C25.5553 13.2752 25.5735 13.7262 25.5481 14.1875L25.4558 15.8318C25.4346 16.2711 25.4037 16.7456 25.4735 17.1824C25.5015 17.357 25.6274 17.4707 25.7675 17.5658C26.0014 17.5779 26.0871 17.5794 26.3118 17.5096C26.5106 17.1688 26.5122 16.8418 26.5787 16.4607C26.6342 16.1434 26.7146 15.7997 26.7516 15.4817L26.9815 13.3413C27.0683 12.5931 27.1842 11.0894 27.9414 10.7202C28.1244 10.6295 28.3365 10.618 28.5282 10.6883C29.4717 11.0381 29.1973 12.3749 29.2162 13.1541C29.2189 13.2688 29.2088 13.4067 29.2011 13.5221C29.1014 15.0627 28.9393 16.5987 28.7152 18.1264C28.6823 18.3538 28.6427 18.583 28.6032 18.8094C28.3506 20.2565 28.1915 21.7086 28.0436 23.1693C28.0119 23.4822 28.0256 23.8217 28.0018 24.1421C27.9071 25.3862 27.7877 26.628 27.6438 27.8672C27.5914 28.3111 27.5703 28.8334 27.4165 29.2482C27.2586 29.6741 26.5261 29.6375 26.155 29.6587C25.8966 29.6734 25.5647 29.7225 25.3119 29.7197C24.5524 29.7108 23.7965 29.7575 23.0392 29.767C21.3617 29.7815 19.6841 29.7661 18.0071 29.721C17.6415 29.7093 17.2871 29.6617 16.9027 29.6465C16.1175 29.6151 15.1645 29.6987 14.4187 29.4413C14.0568 29.1954 13.7425 28.4265 13.5751 28.0896C12.4416 25.8076 11.2637 23.5632 10.4032 21.1581C10.1527 20.354 9.88683 19.6292 9.84354 18.7784C9.81006 18.1204 9.72595 17.4017 10.2987 16.9259C10.6661 16.5943 11.2461 16.8238 11.5391 17.1587C12.0355 17.7261 12.3984 18.5196 12.7412 19.1888C12.9547 19.6018 13.1747 20.0112 13.4012 20.417C13.6005 20.7765 14.1233 21.9195 14.6451 21.4058C14.9092 21.146 14.8712 20.3335 14.9157 19.9861C15.0086 19.2619 14.9919 18.5553 14.9919 17.8274L14.9912 14.8888C14.991 14.477 14.9651 13.6225 14.9967 13.2094C15.0591 12.394 15.0279 10.7765 15.6216 10.1779C15.8418 9.96009 16.0537 9.99863 16.3159 9.99136C16.855 9.9198 17.4894 10.4181 17.5692 10.9945C17.7896 12.5865 17.7 14.3068 17.7236 15.9144C17.7336 16.5996 17.5751 16.9935 18.0564 17.5224C18.238 17.5345 18.4345 17.5273 18.6177 17.5239C18.985 17.099 18.9063 16.7313 18.9356 16.2158C19.033 14.5032 18.8094 12.7276 19.1072 11.0357C19.1862 10.5867 19.6746 9.98013 20.1279 9.93698C20.4059 9.91077 20.8229 9.89228 21.0358 10.0955C21.5583 10.5011 21.5031 10.8036 21.5617 11.3873C21.7032 12.7976 21.6367 14.2172 21.6393 15.633C21.6401 16.0888 21.4148 17.1241 21.9224 17.4213C22.918 18.0046 22.998 16.4602 23.0976 15.8692C23.2106 15.199 23.1762 14.5505 23.1859 13.8748C23.2292 13.2197 23.2591 12.5605 23.2896 11.9063C23.3116 11.4338 23.4788 10.677 23.7409 10.2849C23.9142 10.0257 24.206 9.91694 24.5064 9.8707Z" fill="var(--fill-0, #FD6418)"/>
</g>
</g>
</svg>
