<svg preserveAspectRatio="none" width="100%" height="100%" overflow="visible" style="display: block;" viewBox="0 0 39.0582 44.4191" fill="none" xmlns="http://www.w3.org/2000/svg">
<g id="Group 2147253462">
<path id="Pin" fill-rule="evenodd" clip-rule="evenodd" d="M19.5291 0C30.3147 0 39.0582 8.88573 39.0582 19.8468C39.0582 29.4492 32.348 37.4589 23.4331 39.297L20.1358 44.0954C20.0674 44.1954 19.9765 44.277 19.8709 44.3333C19.7653 44.3897 19.6481 44.4191 19.5291 44.4191C19.4101 44.4191 19.2928 44.3897 19.1872 44.3333C19.0816 44.277 18.9908 44.1954 18.9224 44.0954L15.6251 39.297C6.71017 37.4589 0 29.4492 0 19.8468C0 8.88573 8.74347 0 19.5291 0Z" fill="var(--fill-0, #82784C)"/>
<g id="Frame 2147260850">
<rect x="3.44631" y="3.7335" width="32.1656" height="32.1656" rx="16.0828" fill="var(--fill-0, white)"/>
<path id="Vector" d="M14.2921 11.1833C14.4593 11.1695 14.7166 11.1804 14.7707 11.3878C14.8684 11.7627 14.5241 12.0585 14.4105 12.3612C14.1653 13.0149 13.9417 13.9686 14.0833 14.6638C14.1068 14.7525 14.1755 14.915 14.2561 14.9504C14.3246 14.9805 14.4865 14.9656 14.5186 14.9349C14.8216 14.6451 14.9346 13.7113 15.0798 13.339C15.3338 12.6673 15.7318 11.9175 16.4018 11.5798C16.6044 11.4777 17.0211 11.3565 17.1262 11.6461C17.3142 12.1643 16.6057 12.5355 16.3634 12.9209C16.2166 13.1543 16.1076 13.3443 16.0195 13.6092C15.8326 14.1613 15.4664 15.2072 15.6887 15.7743C15.7465 15.9219 15.914 16.0385 16.0595 16.0829C16.581 16.2421 17.2162 16.1332 17.7698 16.1616C18.0593 16.1764 18.3816 16.2255 18.6544 16.2365C19.8318 16.2843 21.695 16.4268 22.7659 15.9705C23.743 15.3582 23.6035 13.6588 23.9503 12.7113C24.1965 12.0389 24.6141 11.1619 25.4271 11.406C26.0531 11.594 25.8264 12.5218 26.0647 12.9906C26.1113 13.0841 26.1837 13.1623 26.2735 13.216C26.9283 13.6053 28.3263 13.6084 29.0769 13.8823C30.2471 14.3093 30.9477 14.7399 30.4948 16.0852C30.3573 16.5009 30.137 16.8848 29.8472 17.2139C28.8301 18.3648 27.9671 17.6009 26.7863 17.5182C26.6595 17.5093 26.5083 17.5017 26.3929 17.5617C26.2851 17.6178 26.2479 17.7311 26.2375 17.8446C26.1546 18.7529 27.2096 21.8499 27.5365 22.9C27.7137 23.4692 27.8683 24.0467 28.054 24.613C28.2859 25.3201 28.597 25.9708 28.7035 26.7176C28.7352 26.9395 28.7108 27.1608 28.6441 27.3742C28.5189 27.7751 28.2632 28.1341 27.8842 28.3307C27.6502 28.4522 27.3968 28.4928 27.1427 28.4096C25.7205 27.9436 25.688 24.2926 25.0521 23.0619C24.9777 22.918 24.8692 22.7612 24.7053 22.7124C24.603 22.682 24.4877 22.7051 24.3967 22.7577C24.3112 22.8072 24.2447 22.8856 24.1992 22.9722C23.9174 23.5086 23.8208 24.2754 23.7272 24.8737C23.6137 25.5996 23.5249 26.3608 23.3371 27.07C23.2212 27.5074 23.0396 28.0918 22.6196 28.3293C22.4149 28.4451 22.1855 28.4775 21.959 28.4118C21.5551 28.2947 21.2738 27.9963 21.0789 27.6385C20.9821 27.4342 20.9171 27.2276 20.8948 27.0024C20.7627 25.6669 21.9211 23.0011 21.3974 21.971C21.2555 21.6919 20.9923 21.5143 20.7005 21.4185C20.1194 21.2276 19.4266 21.2755 18.8219 21.2712C18.5433 21.2693 18.2524 21.2513 17.9761 21.2855C17.8294 21.3036 17.677 21.3386 17.5451 21.4063C17.3162 21.5237 17.2473 21.7643 17.2288 22.0061C17.1008 23.6789 18.9922 26.1113 18.5538 27.4904C18.4717 27.7486 18.2986 27.9892 18.0521 28.1133C17.8029 28.2387 17.521 28.2418 17.2594 28.1525C16.1998 27.7908 15.8986 25.8956 15.6588 24.9345C15.5087 24.3326 15.3582 23.6878 15.0816 23.1295C15.0115 22.9881 14.9068 22.8006 14.7461 22.7503C14.6878 22.7321 14.6306 22.7383 14.5771 22.7669C14.4341 22.8434 14.3519 23.0308 14.3022 23.1769C14.1906 23.5056 14.1506 23.8709 14.0948 24.2131C13.9592 25.0442 13.8694 25.8984 13.6385 26.7096C13.4816 27.2613 13.2841 27.9156 12.7446 28.2123C12.4971 28.3483 12.2176 28.4027 11.9428 28.3195C11.4835 28.1805 11.1987 27.7076 11.0818 27.2699C10.9401 26.739 11.018 26.1689 11.0866 25.6322C11.1382 25.227 11.2047 24.8239 11.2858 24.4236C11.6101 22.8345 12.4267 19.9664 11.8826 18.4081C11.6832 17.8372 10.4179 17.3318 9.96882 16.9093C9.56987 16.5257 9.25309 16.1001 8.9953 15.5942C8.80329 15.2352 8.25021 14.0355 8.47873 13.6151C9.03894 12.5846 9.71143 14.7541 9.77729 14.8801C10.1714 15.6338 10.6799 16.3296 11.4739 16.6207C11.5759 16.5368 11.6166 16.4944 11.7037 16.3986C11.585 16.1198 11.4484 16.0303 11.3066 15.8068C11.1642 15.5823 10.9652 15.1191 10.8865 14.8567C10.6344 14.0164 10.5302 12.9731 10.8935 12.1515C10.9696 11.9933 11.1373 11.8358 11.3079 11.791C11.7775 11.6676 11.8204 12.4352 11.8474 12.7355C11.9086 13.4174 11.8941 14.116 12.0696 14.7841C12.1486 15.0388 12.286 15.4419 12.5449 15.5665C13.2767 15.9321 13.1779 15.0176 13.1779 14.5855C13.1779 13.9624 13.1678 13.3937 13.2922 12.7766C13.4245 12.1199 13.5513 11.4118 14.2921 11.1833Z" fill="var(--fill-0, #82784C)"/>
</g>
</g>
</svg>
