<svg preserveAspectRatio="none" width="100%" height="100%" overflow="visible" style="display: block;" viewBox="0 0 39.0582 44.4191" fill="none" xmlns="http://www.w3.org/2000/svg">
<g id="Group 2147253462">
<path id="Pin" fill-rule="evenodd" clip-rule="evenodd" d="M19.5291 0C30.3147 0 39.0582 8.88573 39.0582 19.8468C39.0582 29.4492 32.348 37.4589 23.4331 39.297L20.1358 44.0954C20.0674 44.1954 19.9765 44.277 19.8709 44.3333C19.7653 44.3897 19.6481 44.4191 19.5291 44.4191C19.4101 44.4191 19.2928 44.3897 19.1872 44.3333C19.0816 44.277 18.9908 44.1954 18.9224 44.0954L15.6251 39.297C6.71017 37.4589 0 29.4492 0 19.8468C0 8.88573 8.74347 0 19.5291 0Z" fill="var(--fill-0, #F4AE20)"/>
<g id="Frame 2147260850">
<rect x="3.44609" y="3.7335" width="32.1656" height="32.1656" rx="16.0828" fill="var(--fill-0, white)"/>
<path id="Subtract" d="M21.5223 11.977C23.0418 12.0028 24.0505 11.9057 24.9227 13.35C25.3275 14.0204 25.6924 14.7041 26.0663 15.392C26.5543 16.2899 27.0853 17.176 27.5673 18.0756C28.5392 18.4713 30.1674 18.8186 30.9911 19.5424C31.357 19.8647 31.4127 21.3508 31.3973 21.8686C31.3666 22.686 31.3978 23.5733 31.2196 24.3695C31.1768 24.5602 30.6921 25.0429 30.4999 25.0961C30.0442 25.2223 29.4241 25.1929 28.9471 25.1908C28.7062 25.9673 28.2807 26.6876 27.6024 27.1528C26.9803 27.5816 26.2112 27.7412 25.4696 27.5961C24.8428 27.4776 24.245 27.1741 23.8534 26.6528C23.5304 26.2228 23.404 25.6631 23.1219 25.2475C22.9256 25.1577 20.4148 25.2061 20.0038 25.2065H16.035C15.9608 25.5493 15.8341 25.9277 15.6649 26.2348C15.302 26.8831 14.6994 27.3636 13.9862 27.5717C13.3308 27.7604 12.581 27.6536 11.9901 27.3188C11.1456 26.8398 10.7281 26.1294 10.4706 25.2143C9.87319 25.2398 9.16597 25.2811 8.61218 25.016C8.25021 24.8427 8.04024 24.555 7.91004 24.182C7.60209 23.2998 7.53396 20.6297 7.94714 19.7924C8.35827 18.9596 9.53129 18.8161 10.3358 18.5981C10.7894 18.4743 11.2391 18.3358 11.6835 18.182C11.7448 17.9658 11.983 17.491 12.0946 17.2768C12.6288 16.2474 13.2222 15.2486 13.8143 14.2514C14.0808 13.8026 14.335 13.3265 14.6366 12.8998C14.8007 12.6678 15.0632 12.4977 15.3016 12.3461C15.9367 11.9425 16.5851 12.007 17.3163 11.9955L19.0292 11.9779C19.8602 11.9654 20.6913 11.9649 21.5223 11.977ZM16.8661 14.018L16.3153 14.0297C15.5364 15.25 14.8447 16.5242 14.246 17.8422L15.8807 17.8598L18.4686 17.8735C18.4753 16.5916 18.4656 15.3094 18.4393 14.0278C17.9142 14.0232 17.391 14.0103 16.8661 14.018ZM22.8026 14.0043C22.1963 14.0041 21.5149 13.9903 20.9149 14.0121C20.8797 14.0222 20.8064 14.0349 20.8026 14.0619C20.665 15.0421 20.7301 16.9377 20.743 17.8403C22.0653 17.8521 23.3878 17.8456 24.7098 17.8207C24.7726 17.8166 24.8286 17.8208 24.8749 17.7836C24.9203 17.4057 23.1163 14.5174 22.8026 14.0043Z" fill="var(--fill-0, #F4AE20)"/>
</g>
</g>
</svg>
