<svg preserveAspectRatio="none" width="100%" height="100%" overflow="visible" style="display: block;" viewBox="0 0 42 39" fill="none" xmlns="http://www.w3.org/2000/svg">
<path id="Vector" d="M22.3297 0.359875C22.3297 0.360099 22.3297 0.360321 22.3299 0.360519L27.2146 9.51897C27.4986 10.0514 28.0023 10.4261 28.5943 10.5427C31.5222 11.1197 40.4317 12.9104 41.7985 13.6016C43.7927 14.6101 30.3174 22.4281 30.6553 23.5235C30.9931 24.6188 32.9858 30.8372 34.2957 37.6372C34.8307 40.4129 23.3221 33.0813 20.608 31.2635C20.2681 31.0356 19.8179 31.0199 19.4605 31.2238L6.95005 38.9508C6.49118 39.2122 5.67856 38.3706 5.79382 37.8767L8.87814 24.6216C9.01571 24.0304 8.87733 23.4087 8.50198 22.9316L1.71767 14.3091L0.109821 12.5713C-0.221462 12.2135 0.255527 11.9323 0.759338 11.9384L11.9417 11.8086C12.5808 11.8012 13.1779 11.4887 13.5483 10.9678L21.0944 0.356796C21.3517 -0.119969 22.0742 -0.118702 22.3295 0.359228C22.3296 0.359426 22.3297 0.35965 22.3297 0.359875Z" fill="var(--fill-0, #FDFFC3)"/>
</svg>
