<svg preserveAspectRatio="none" width="100%" height="100%" overflow="visible" style="display: block;" viewBox="0 0 57.149 50" fill="none" xmlns="http://www.w3.org/2000/svg">
<g id="Container">
<path id="e911_emergency" d="M7.14377 50C4.07544 50 2.35058 46.1314 4.5988 43.8831C5.86694 42.615 7.64681 42.8562 9.28691 42.8562L16.3414 19.3711C16.8176 17.8233 17.6957 16.588 18.9757 15.6652C22.8625 12.8631 29.94 13.3352 33.9329 14.2811C37.9259 15.227 39.8869 16.3748 40.8088 19.3711C40.8088 19.3711 46.2232 42.8562 47.8633 42.8562C49.5034 42.8562 51.2832 42.615 52.5514 43.8831C53.236 44.5678 53.5783 45.4161 53.5783 46.4281C53.5783 48.4193 51.9976 50 50.0064 50H7.14377ZM26.0301 1.0257C27.3977 -0.3419 29.7525 -0.3419 31.1201 1.0257C32.5209 2.42649 32.4309 4.79966 31.1201 6.11045C30.4355 6.79506 29.5871 7.13736 28.5751 7.13736C27.5631 7.13736 26.7147 6.79506 26.0301 6.11045C24.7193 4.79966 24.6293 2.4265 26.0301 1.0257ZM46.6814 7.2223C47.6636 7.19253 48.5119 7.53484 49.2263 8.24922C49.8812 8.90406 50.2086 9.7375 50.2086 10.7495C50.2086 12.7531 48.2737 14.549 46.2559 14.549C45.3034 14.549 44.47 14.1918 43.7556 13.4775C43.0412 12.7631 42.684 11.9148 42.684 10.9325C42.684 8.90438 44.7055 7.28217 46.6814 7.2223ZM56.1233 26.0237C57.4909 27.3913 57.4909 29.7461 56.1233 31.1137C54.7557 32.4812 52.4009 32.4812 51.0333 31.1137C50.3487 30.429 50.0064 29.5807 50.0064 28.5687C50.0064 25.4315 53.9478 23.8482 56.1233 26.0237ZM7.19409 10.9775C7.16432 9.99526 7.50663 9.14694 8.221 8.43256C8.87585 7.77772 9.70929 7.45029 10.7213 7.45029C12.7005 7.45029 14.5554 8.83244 14.5554 10.8878C14.5554 12.8272 12.8636 14.4597 10.9389 14.4597C8.92974 14.4597 7.25479 12.9809 7.19409 10.9775ZM0 28.5687C0 25.4315 3.57189 23.4787 6.11686 26.0237C7.48446 27.3913 7.76367 29.4668 6.11686 31.1137C3.86862 33.3619 0 31.637 0 28.5687Z" fill="var(--fill-0, #FDFFC3)"/>
</g>
</svg>
