<svg preserveAspectRatio="none" width="100%" height="100%" overflow="visible" style="display: block;" viewBox="0 0 129.672 70.0009" fill="none" xmlns="http://www.w3.org/2000/svg">
<g id="Group 2147253458">
<path id="Vector" d="M41.896 69.8864C37.0715 69.7478 31.4798 70.219 26.6923 69.8679C23.2633 70.6348 25.4815 66.9571 23.1986 65.9499C21.2855 65.1552 19.058 66.7538 18.8085 68.8329C18.7715 69.1471 18.3186 69.72 18.0136 69.7385C12.2556 70.0435 5.74898 69.988 0.000208065 69.757C1.31263 52.6342 4.65952 25.0574 6.01816 7.92534C8.13467 9.20978 15.6395 11.2057 20.233 12.5179C24.8264 13.8301 39.106 14.3475 40.9175 14.1443C44.5959 13.7377 40.2888 21.048 39.3276 25.5666C38.884 27.6642 36.9328 36.4168 36.4892 38.4867L35.8607 42.6912C34.1786 52.9482 44.0587 53.4751 51.0645 56.4043C53.4213 57.467 56.9426 57.9845 58.1719 60.6365C59.7708 63.5104 58.8743 69.988 54.9093 69.8864H41.9053H41.896Z" fill="var(--fill-0, #2949F5)"/>
<path id="Vector_2" d="M94.713 61.4065C94.0383 63.0236 90.9422 63.4579 89.6113 64.4004C86.1639 66.0268 82.0695 68.1336 78.5759 69.6583C77.7348 69.492 77.6239 68.1244 77.3559 67.4868C76.4871 65.5555 75.6183 62.7649 74.6478 60.8798C70.5997 50.6597 61.8399 26.8377 57.5977 16.7192C57.764 16.211 67.5332 12.6441 68.9196 12.0712C72.7644 10.5095 77.3302 7.62648 81.1196 5.3995C82.737 4.44772 87.3305 1.82339 89.3545 0.0676801C89.6411 -0.181816 89.8167 0.317176 89.8721 0.612875C92.2382 7.27534 97.3471 33.0841 104.122 36.2813C105.175 36.9374 106.848 36.7434 107.985 36.5401C109.963 36.2536 112.107 36.3922 114.067 36.0134C117.412 36.0596 123.059 34.156 126.045 35.9025C129.252 37.88 131.073 42.796 128.337 45.7899C123.152 48.368 117.07 51.2973 111.811 53.7738C108.595 55.3447 104.686 57.1743 101.478 58.7637C99.3435 59.8079 100.314 56.5829 97.8739 56.3057C94.7777 55.7051 94.3064 59.5029 94.713 61.3973V61.4065Z" fill="var(--fill-0, #2949F5)"/>
</g>
</svg>
